# xmcd CD database file
# Copyright (C) 1993-1998 Ti Kan
#
# Track frame offsets:
#  150
#  18614
#  32418
#  53430
#  72791
#  83372
#  105519
#  123459
#  136524
#  151846
#  164992
#  182940
#
# Disc length: 2728 seconds
#
# Revision: 1
# Processed by: cddbd v1.4b41PL1 Copyright (c) Steve Scherf et al.
# Submitted via: KiC 2.1 - (C) 1996-1998 Alwin Hoogerdijk
#
DISCID=8d0aa60c
DTITLE=Kevin Gordon - Cadillac Jack's #1 Son
DYEAR=1900
DGENRE=
TTITLE0=Company Car
TTITLE1=Fast Train
TTITLE2=Pauline
TTITLE3=Lucy And Andy Drive To Arkansas
TTITLE4=Blue Collar Dollar
TTITLE5=Dissatisfied
TTITLE6=Over The Levee
TTITLE7=Looking For Killerman
TTITLE8=Cadillac Jack's #1 Son
TTITLE9=Junior's Guitar
TTITLE10=Evan Pick Up The Line
TTITLE11=Heaven And The Hanging Tree
EXTD=
EXTT0=
EXTT1=
EXTT2=
EXTT3=
EXTT4=
EXTT5=
EXTT6=
EXTT7=
EXTT8=
EXTT9=
EXTT10=
EXTT11=
PLAYORDER=
